<svg width="25" height="24" viewBox="0 0 25 24" fill="none" xmlns="http://www.w3.org/2000/svg">
<g id="chat_bubble">
<path id="Union" fill-rule="evenodd" clip-rule="evenodd" d="M11.1911 2H13.4723H13.4723C14.9717 1.99999 16.1597 1.99998 17.1084 2.09649C18.0804 2.19537 18.8919 2.40232 19.6017 2.87661C20.1697 3.25611 20.6573 3.74375 21.0368 4.31171C21.5111 5.02154 21.7181 5.83302 21.817 6.80504C21.9135 7.75373 21.9135 8.94174 21.9135 10.4411V10.4412V10.5322C21.9135 12.0316 21.9135 13.2196 21.817 14.1683C21.7181 15.1403 21.5111 15.9518 21.0368 16.6616C20.6573 17.2296 20.1697 17.7172 19.6017 18.0967C18.9818 18.511 18.2847 18.7211 17.4702 18.8337C16.787 18.9282 15.9838 18.9582 15.032 18.9682L14.0458 20.9407C13.3395 22.3531 11.3239 22.3531 10.6177 20.9407L9.63148 18.9682C8.67961 18.9582 7.87649 18.9282 7.19322 18.8337C6.37876 18.7211 5.68169 18.511 5.06171 18.0967C4.49375 17.7172 4.00611 17.2296 3.62661 16.6616C3.15232 15.9518 2.94537 15.1403 2.84649 14.1683C2.74998 13.2196 2.74999 12.0316 2.75 10.5322V10.5322V10.4411V10.4411C2.74999 8.94177 2.74998 7.75374 2.84649 6.80504C2.94537 5.83302 3.15232 5.02154 3.62661 4.31171C4.00611 3.74375 4.49375 3.25611 5.06171 2.87661C5.77154 2.40232 6.58302 2.19537 7.55504 2.09649C8.50374 1.99998 9.69177 1.99999 11.1911 2H11.1911ZM7.72128 3.73064C6.87913 3.81631 6.36923 3.97847 5.97428 4.24237C5.58568 4.50202 5.25202 4.83568 4.99237 5.22428C4.72847 5.61923 4.56631 6.12913 4.48064 6.97128C4.39358 7.82714 4.39258 8.93162 4.39258 10.4867C4.39258 12.0417 4.39358 13.1462 4.48064 14.0021C4.56631 14.8442 4.72847 15.3541 4.99237 15.7491C5.25202 16.1377 5.58568 16.4713 5.97428 16.731C6.31942 16.9616 6.75276 17.1146 7.41813 17.2066C8.09671 17.3004 8.95989 17.3241 10.1452 17.3293C10.4788 17.3307 10.7652 17.5309 10.8925 17.8173L12.0869 20.2061C12.1878 20.4079 12.4757 20.4079 12.5766 20.2061L13.771 17.8173C13.8983 17.5309 14.1847 17.3307 14.5183 17.3293C15.7036 17.3241 16.5667 17.3004 17.2453 17.2066C17.9107 17.1146 18.344 16.9616 18.6892 16.731C19.0778 16.4713 19.4114 16.1377 19.6711 15.7491C19.935 15.3541 20.0971 14.8442 20.1828 14.0021C20.2699 13.1462 20.2709 12.0417 20.2709 10.4867C20.2709 8.93162 20.2699 7.82714 20.1828 6.97128C20.0971 6.12913 19.935 5.61923 19.6711 5.22428C19.4114 4.83568 19.0778 4.50202 18.6892 4.24237C18.2942 3.97847 17.7843 3.81631 16.9422 3.73064C16.0863 3.64358 14.9818 3.64258 13.4268 3.64258H11.2367C9.68162 3.64258 8.57714 3.64358 7.72128 3.73064ZM8.22527 8.29656C8.22527 7.84298 8.59298 7.47527 9.04656 7.47527H15.6169C16.0705 7.47527 16.4382 7.84298 16.4382 8.29656C16.4382 8.75015 16.0705 9.11785 15.6169 9.11785H9.04656C8.59298 9.11785 8.22527 8.75015 8.22527 8.29656ZM9.04656 11.8555C8.59298 11.8555 8.22527 12.2232 8.22527 12.6768C8.22527 13.1304 8.59298 13.4981 9.04656 13.4981H12.3317C12.7853 13.4981 13.153 13.1304 13.153 12.6768C13.153 12.2232 12.7853 11.8555 12.3317 11.8555H9.04656Z" fill="white"/>
</g>
</svg>
