<svg width="25" height="24" viewBox="0 0 25 24" fill="none" xmlns="http://www.w3.org/2000/svg">
<g id="search">
<path id="Union" fill-rule="evenodd" clip-rule="evenodd" d="M4.31818 10.1818C4.31818 6.66728 7.16728 3.81818 10.6818 3.81818C14.1964 3.81818 17.0455 6.66728 17.0455 10.1818C17.0455 13.6964 14.1964 16.5455 10.6818 16.5455C7.16728 16.5455 4.31818 13.6964 4.31818 10.1818ZM10.6818 2C6.16312 2 2.5 5.66312 2.5 10.1818C2.5 14.7005 6.16312 18.3636 10.6818 18.3636C15.2005 18.3636 18.8636 14.7005 18.8636 10.1818C18.8636 5.66312 15.2005 2 10.6818 2ZM18.5974 16.8117C18.2423 16.4567 17.6667 16.4567 17.3117 16.8117C16.9567 17.1667 16.9567 17.7423 17.3117 18.0974L20.9481 21.7337C21.3031 22.0888 21.8787 22.0888 22.2337 21.7337C22.5888 21.3787 22.5888 20.8031 22.2337 20.4481L18.5974 16.8117Z" fill="white"/>
</g>
</svg>
