<svg width="24" height="24" viewBox="0 0 24 24" fill="none" xmlns="http://www.w3.org/2000/svg">
<g id="home">
<path id="Union" fill-rule="evenodd" clip-rule="evenodd" d="M7.93875 6.23407C9.01734 5.30957 9.76684 4.66922 10.4007 4.25058C11.0145 3.84516 11.4313 3.70952 11.8327 3.70952C12.234 3.70952 12.6508 3.84516 13.2646 4.25058C13.8985 4.66922 14.648 5.30957 15.7265 6.23407L16.8662 7.21094C18.1005 8.26889 18.5047 8.63946 18.7211 9.10978C18.9374 9.5801 18.9557 10.1282 18.9557 11.7538V16.5865C18.9557 17.6852 18.9538 18.4232 18.8798 18.9737C18.8091 19.4996 18.6869 19.7247 18.5384 19.8732C18.3899 20.0217 18.1648 20.1439 17.6389 20.2146C17.1374 20.2821 16.4802 20.2896 15.5365 20.2904V15.4468C15.5365 14.3453 14.6435 13.4524 13.5421 13.4524H10.123C9.02151 13.4524 8.12856 14.3453 8.12856 15.4468V20.2904C7.18499 20.2896 6.52791 20.2821 6.02642 20.2146C5.5005 20.1439 5.27542 20.0217 5.1269 19.8732C4.97838 19.7247 4.85618 19.4996 4.78547 18.9737C4.71146 18.4232 4.70964 17.6852 4.70964 16.5865V11.7538C4.70964 10.1282 4.72793 9.5801 4.94424 9.10978C5.16056 8.63946 5.5648 8.26889 6.79907 7.21094L7.93875 6.23407ZM9.83809 20.2905V15.4468C9.83809 15.2895 9.96565 15.1619 10.123 15.1619H13.5421C13.6994 15.1619 13.827 15.2895 13.827 15.4468V20.2905H9.83809ZM14.6817 22H15.311C16.3349 22 17.1888 22.0001 17.8667 21.9089C18.5822 21.8127 19.2281 21.6011 19.7472 21.082C20.2663 20.5629 20.4779 19.917 20.5741 19.2015C20.6652 18.5236 20.6652 17.6698 20.6652 16.6458V16.6458L20.6652 11.7538L20.6652 11.5732C20.666 10.2018 20.6665 9.24835 20.2742 8.39544C19.8819 7.54254 19.1577 6.92242 18.116 6.03051L17.9788 5.91297L16.7959 4.8991L16.7959 4.8991C15.7708 4.02041 14.9406 3.30879 14.2068 2.8241C13.4426 2.31942 12.6961 2 11.8327 2C10.9692 2 10.2227 2.31942 9.45855 2.8241C8.72468 3.30879 7.89448 4.02042 6.86938 4.8991L6.86937 4.89911L5.68653 5.91297L5.54931 6.03051C4.50764 6.92242 3.7834 7.54254 3.39112 8.39544C2.99884 9.24834 2.99934 10.2018 3.00006 11.5731L3.00012 11.7538L3.00012 16.6458C3.00009 17.6698 3.00006 18.5236 3.0912 19.2015C3.18739 19.917 3.399 20.5629 3.91809 21.082C4.43718 21.6011 5.08315 21.8127 5.79863 21.9089C6.4765 22.0001 7.33037 22 8.35435 22H8.98333H14.6817Z" fill="white"/>
</g>
</svg>
