<svg xmlns="http://www.w3.org/2000/svg" xmlns:xlink="http://www.w3.org/1999/xlink" width="500" zoomAndPan="magnify" viewBox="0 0 375 374.999991" height="500" preserveAspectRatio="xMidYMid meet" version="1.0"><defs><g/></defs><g fill="#ffffff" fill-opacity="1"><g transform="translate(146.391308, 206.044672)"><g><path d="M 51.515625 -44.5 C 50.054688 -44.5 48.820312 -45.003906 47.8125 -46.015625 C 46.8125 -47.023438 46.3125 -48.257812 46.3125 -49.71875 C 46.3125 -51.082031 46.8125 -52.289062 47.8125 -53.34375 C 48.820312 -54.394531 50.035156 -54.898438 51.453125 -54.859375 C 52.910156 -54.816406 54.140625 -54.289062 55.140625 -53.28125 C 56.148438 -52.269531 56.65625 -51.0625 56.65625 -49.65625 C 56.65625 -48.238281 56.148438 -47.023438 55.140625 -46.015625 C 54.140625 -45.003906 52.929688 -44.5 51.515625 -44.5 Z M 36.71875 -24.765625 C 38.644531 -27.628906 40.925781 -30.226562 43.5625 -32.5625 C 46.207031 -34.90625 48.984375 -36.835938 51.890625 -38.359375 C 54.804688 -39.878906 57.671875 -40.84375 60.484375 -41.25 C 63.296875 -41.664062 65.835938 -41.367188 68.109375 -40.359375 C 70.378906 -39.347656 72.195312 -37.46875 73.5625 -34.71875 C 74.9375 -31.976562 75.625 -28.207031 75.625 -23.40625 L 75.625 0 L 61.15625 0 C 58.5 0 55.90625 -0.140625 53.375 -0.421875 C 50.84375 -0.703125 48.300781 -1.238281 45.75 -2.03125 C 43.207031 -2.820312 40.539062 -3.988281 37.75 -5.53125 C 37.019531 -2.65625 35.847656 -0.101562 34.234375 2.125 C 32.628906 4.351562 30.601562 6.097656 28.15625 7.359375 C 25.71875 8.628906 22.847656 9.265625 19.546875 9.265625 C 17.109375 9.265625 14.828125 8.800781 12.703125 7.875 C 10.578125 6.957031 8.707031 5.691406 7.09375 4.078125 C 5.488281 2.472656 4.222656 0.597656 3.296875 -1.546875 C 2.378906 -3.691406 1.921875 -5.984375 1.921875 -8.421875 C 1.921875 -10.222656 2.175781 -11.945312 2.6875 -13.59375 C 3.207031 -15.25 3.941406 -16.765625 4.890625 -18.140625 L 6.234375 -18.140625 C 6.234375 -16.421875 6.851562 -15.21875 8.09375 -14.53125 C 9.34375 -13.84375 11.304688 -13.4375 13.984375 -13.3125 C 16.660156 -13.1875 20.164062 -13.125 24.5 -13.125 C 25.101562 -13.125 25.597656 -13.316406 25.984375 -13.703125 C 26.367188 -14.085938 26.5625 -14.554688 26.5625 -15.109375 L 26.5625 -30.359375 C 26.5625 -31.210938 26.828125 -31.875 27.359375 -32.34375 C 27.898438 -32.820312 28.523438 -33.035156 29.234375 -32.984375 C 29.941406 -32.941406 30.550781 -32.582031 31.0625 -31.90625 Z M 36.71875 -24.765625 "/></g></g></g><g fill="#ffffff" fill-opacity="1"><g transform="translate(222.015928, 206.044672)"><g><path d="M -0.640625 0 L -6.4375 -24.703125 L 2.1875 -24.703125 C 2.65625 -24.703125 3.039062 -24.859375 3.34375 -25.171875 C 3.644531 -25.492188 3.796875 -25.867188 3.796875 -26.296875 L 3.796875 -29.265625 L 13.640625 -36.53125 C 14.410156 -37.082031 15.171875 -37.175781 15.921875 -36.8125 C 16.671875 -36.445312 17.046875 -35.796875 17.046875 -34.859375 L 17.046875 0 Z M 8.484375 13.4375 C 7.066406 13.476562 5.851562 12.972656 4.84375 11.921875 C 3.84375 10.878906 3.34375 9.671875 3.34375 8.296875 C 3.34375 6.796875 3.84375 5.550781 4.84375 4.5625 C 5.851562 3.582031 7.085938 3.09375 8.546875 3.09375 C 9.960938 3.09375 11.175781 3.59375 12.1875 4.59375 C 13.195312 5.601562 13.703125 6.816406 13.703125 8.234375 C 13.703125 9.648438 13.195312 10.859375 12.1875 11.859375 C 11.175781 12.867188 9.941406 13.394531 8.484375 13.4375 Z M 8.484375 13.4375 "/></g></g></g><g fill="#ffffff" fill-opacity="1"><g transform="translate(239.057191, 206.044672)"><g><path d="M 9.0625 -38.71875 C 7.601562 -38.71875 6.367188 -39.21875 5.359375 -40.21875 C 4.359375 -41.226562 3.859375 -42.460938 3.859375 -43.921875 C 3.859375 -45.296875 4.359375 -46.507812 5.359375 -47.5625 C 6.367188 -48.613281 7.582031 -49.117188 9 -49.078125 C 10.457031 -49.023438 11.691406 -48.492188 12.703125 -47.484375 C 13.710938 -46.484375 14.21875 -45.273438 14.21875 -43.859375 C 14.21875 -42.441406 13.710938 -41.226562 12.703125 -40.21875 C 11.691406 -39.21875 10.476562 -38.71875 9.0625 -38.71875 Z M -0.640625 0 L -6.4375 -24.703125 L 2.1875 -24.703125 C 2.65625 -24.703125 3.039062 -24.859375 3.34375 -25.171875 C 3.644531 -25.492188 3.796875 -25.867188 3.796875 -26.296875 L 3.796875 -29.265625 L 13.640625 -36.53125 C 14.410156 -37.082031 15.171875 -37.175781 15.921875 -36.8125 C 16.671875 -36.445312 17.046875 -35.796875 17.046875 -34.859375 L 17.046875 -10.546875 C 17.046875 -8.535156 16.59375 -6.722656 15.6875 -5.109375 C 14.789062 -3.503906 13.546875 -2.25 11.953125 -1.34375 C 10.367188 -0.445312 8.550781 0 6.5 0 Z M -0.640625 0 "/></g></g></g><g fill="#ffffff" fill-opacity="1"><g transform="translate(122.7007, 224.396579)"><g><path d="M 9.03125 -9.453125 L 9.03125 0 L 8.125 0 C 7.976562 0 7.859375 -0.0195312 7.765625 -0.0625 C 7.671875 -0.113281 7.582031 -0.191406 7.5 -0.296875 L 2.5625 -6.609375 C 2.59375 -6.316406 2.609375 -6.050781 2.609375 -5.8125 L 2.609375 0 L 1.046875 0 L 1.046875 -9.453125 L 1.96875 -9.453125 C 2.050781 -9.453125 2.117188 -9.445312 2.171875 -9.4375 C 2.222656 -9.4375 2.269531 -9.425781 2.3125 -9.40625 C 2.351562 -9.382812 2.390625 -9.351562 2.421875 -9.3125 C 2.460938 -9.28125 2.507812 -9.234375 2.5625 -9.171875 L 7.515625 -2.84375 C 7.503906 -3 7.492188 -3.148438 7.484375 -3.296875 C 7.472656 -3.441406 7.46875 -3.578125 7.46875 -3.703125 L 7.46875 -9.453125 Z M 9.03125 -9.453125 "/></g></g></g><g fill="#ffffff" fill-opacity="1"><g transform="translate(132.769365, 224.396579)"><g><path d="M 4.34375 -2.859375 C 3.875 -2.835938 3.476562 -2.796875 3.15625 -2.734375 C 2.84375 -2.679688 2.585938 -2.609375 2.390625 -2.515625 C 2.203125 -2.421875 2.066406 -2.3125 1.984375 -2.1875 C 1.898438 -2.070312 1.859375 -1.941406 1.859375 -1.796875 C 1.859375 -1.515625 1.941406 -1.3125 2.109375 -1.1875 C 2.273438 -1.0625 2.492188 -1 2.765625 -1 C 3.097656 -1 3.382812 -1.054688 3.625 -1.171875 C 3.875 -1.296875 4.113281 -1.484375 4.34375 -1.734375 Z M 0.640625 -5.78125 C 1.410156 -6.476562 2.335938 -6.828125 3.421875 -6.828125 C 3.816406 -6.828125 4.164062 -6.765625 4.46875 -6.640625 C 4.78125 -6.515625 5.039062 -6.335938 5.25 -6.109375 C 5.46875 -5.878906 5.632812 -5.601562 5.75 -5.28125 C 5.863281 -4.96875 5.921875 -4.617188 5.921875 -4.234375 L 5.921875 0 L 5.1875 0 C 5.03125 0 4.910156 -0.0195312 4.828125 -0.0625 C 4.742188 -0.113281 4.679688 -0.207031 4.640625 -0.34375 L 4.5 -0.828125 C 4.320312 -0.679688 4.148438 -0.546875 3.984375 -0.421875 C 3.828125 -0.304688 3.660156 -0.207031 3.484375 -0.125 C 3.316406 -0.0507812 3.132812 0.00390625 2.9375 0.046875 C 2.738281 0.0859375 2.519531 0.109375 2.28125 0.109375 C 1.988281 0.109375 1.722656 0.0703125 1.484375 0 C 1.242188 -0.0820312 1.035156 -0.195312 0.859375 -0.34375 C 0.691406 -0.5 0.5625 -0.691406 0.46875 -0.921875 C 0.375 -1.148438 0.328125 -1.414062 0.328125 -1.71875 C 0.328125 -1.882812 0.351562 -2.050781 0.40625 -2.21875 C 0.457031 -2.382812 0.546875 -2.539062 0.671875 -2.6875 C 0.804688 -2.84375 0.972656 -2.988281 1.171875 -3.125 C 1.378906 -3.257812 1.632812 -3.378906 1.9375 -3.484375 C 2.238281 -3.585938 2.585938 -3.671875 2.984375 -3.734375 C 3.378906 -3.796875 3.832031 -3.832031 4.34375 -3.84375 L 4.34375 -4.234375 C 4.34375 -4.679688 4.242188 -5.015625 4.046875 -5.234375 C 3.859375 -5.453125 3.582031 -5.5625 3.21875 -5.5625 C 2.957031 -5.5625 2.738281 -5.53125 2.5625 -5.46875 C 2.394531 -5.40625 2.242188 -5.332031 2.109375 -5.25 C 1.984375 -5.175781 1.867188 -5.109375 1.765625 -5.046875 C 1.660156 -4.992188 1.539062 -4.96875 1.40625 -4.96875 C 1.289062 -4.96875 1.191406 -4.992188 1.109375 -5.046875 C 1.035156 -5.109375 0.972656 -5.175781 0.921875 -5.25 Z M 0.640625 -5.78125 "/></g></g></g><g fill="#ffffff" fill-opacity="1"><g transform="translate(139.40123, 224.396579)"><g><path d="M 2.40625 -1.734375 C 2.59375 -1.515625 2.789062 -1.359375 3 -1.265625 C 3.21875 -1.171875 3.445312 -1.125 3.6875 -1.125 C 3.9375 -1.125 4.160156 -1.171875 4.359375 -1.265625 C 4.554688 -1.359375 4.722656 -1.5 4.859375 -1.6875 C 5.003906 -1.875 5.113281 -2.113281 5.1875 -2.40625 C 5.257812 -2.695312 5.296875 -3.050781 5.296875 -3.46875 C 5.296875 -4.207031 5.175781 -4.738281 4.9375 -5.0625 C 4.695312 -5.394531 4.347656 -5.5625 3.890625 -5.5625 C 3.578125 -5.5625 3.304688 -5.488281 3.078125 -5.34375 C 2.847656 -5.207031 2.625 -5.007812 2.40625 -4.75 Z M 2.40625 -5.890625 C 2.675781 -6.171875 2.976562 -6.394531 3.3125 -6.5625 C 3.644531 -6.726562 4.019531 -6.8125 4.4375 -6.8125 C 4.820312 -6.8125 5.171875 -6.734375 5.484375 -6.578125 C 5.796875 -6.429688 6.0625 -6.210938 6.28125 -5.921875 C 6.507812 -5.640625 6.679688 -5.296875 6.796875 -4.890625 C 6.910156 -4.484375 6.96875 -4.03125 6.96875 -3.53125 C 6.96875 -2.976562 6.898438 -2.476562 6.765625 -2.03125 C 6.628906 -1.59375 6.4375 -1.210938 6.1875 -0.890625 C 5.9375 -0.578125 5.632812 -0.332031 5.28125 -0.15625 C 4.925781 0.0078125 4.535156 0.09375 4.109375 0.09375 C 3.898438 0.09375 3.707031 0.0703125 3.53125 0.03125 C 3.363281 -0.0078125 3.207031 -0.0664062 3.0625 -0.140625 C 2.914062 -0.210938 2.78125 -0.300781 2.65625 -0.40625 C 2.539062 -0.507812 2.429688 -0.628906 2.328125 -0.765625 L 2.25 -0.3125 C 2.226562 -0.195312 2.1875 -0.113281 2.125 -0.0625 C 2.0625 -0.0195312 1.972656 0 1.859375 0 L 0.796875 0 L 0.796875 -9.71875 L 2.40625 -9.71875 Z M 2.40625 -5.890625 "/></g></g></g><g fill="#ffffff" fill-opacity="1"><g transform="translate(146.817157, 224.396579)"><g><path d="M 5.015625 -5 C 4.828125 -5.21875 4.625 -5.375 4.40625 -5.46875 C 4.195312 -5.5625 3.96875 -5.609375 3.71875 -5.609375 C 3.46875 -5.609375 3.242188 -5.5625 3.046875 -5.46875 C 2.859375 -5.375 2.691406 -5.234375 2.546875 -5.046875 C 2.410156 -4.867188 2.304688 -4.632812 2.234375 -4.34375 C 2.160156 -4.0625 2.125 -3.722656 2.125 -3.328125 C 2.125 -2.941406 2.15625 -2.609375 2.21875 -2.328125 C 2.28125 -2.054688 2.367188 -1.832031 2.484375 -1.65625 C 2.597656 -1.488281 2.738281 -1.367188 2.90625 -1.296875 C 3.082031 -1.222656 3.273438 -1.1875 3.484375 -1.1875 C 3.816406 -1.1875 4.097656 -1.253906 4.328125 -1.390625 C 4.566406 -1.535156 4.796875 -1.734375 5.015625 -1.984375 Z M 6.625 -9.71875 L 6.625 0 L 5.640625 0 C 5.421875 0 5.285156 -0.0976562 5.234375 -0.296875 L 5.09375 -0.9375 C 4.820312 -0.632812 4.507812 -0.382812 4.15625 -0.1875 C 3.8125 0 3.40625 0.09375 2.9375 0.09375 C 2.570312 0.09375 2.234375 0.0195312 1.921875 -0.125 C 1.617188 -0.28125 1.359375 -0.503906 1.140625 -0.796875 C 0.921875 -1.085938 0.75 -1.445312 0.625 -1.875 C 0.507812 -2.300781 0.453125 -2.785156 0.453125 -3.328125 C 0.453125 -3.828125 0.519531 -4.289062 0.65625 -4.71875 C 0.789062 -5.144531 0.984375 -5.515625 1.234375 -5.828125 C 1.484375 -6.140625 1.785156 -6.382812 2.140625 -6.5625 C 2.492188 -6.738281 2.890625 -6.828125 3.328125 -6.828125 C 3.703125 -6.828125 4.019531 -6.769531 4.28125 -6.65625 C 4.550781 -6.539062 4.796875 -6.378906 5.015625 -6.171875 L 5.015625 -9.71875 Z M 6.625 -9.71875 "/></g></g></g></svg>