<svg width="25" height="24" viewBox="0 0 25 24" fill="none" xmlns="http://www.w3.org/2000/svg">
<g id="person">
<path id="Union" fill-rule="evenodd" clip-rule="evenodd" d="M9.47754 7.75C9.47754 5.95507 10.9326 4.5 12.7275 4.5C14.5225 4.5 15.9775 5.95507 15.9775 7.75C15.9775 9.54493 14.5225 11 12.7275 11C10.9326 11 9.47754 9.54493 9.47754 7.75ZM12.7275 3C10.1042 3 7.97754 5.12665 7.97754 7.75C7.97754 10.3734 10.1042 12.5 12.7275 12.5C15.3509 12.5 17.4775 10.3734 17.4775 7.75C17.4775 5.12665 15.3509 3 12.7275 3ZM12.7276 15C10.8477 15 9.00474 15.4643 7.48343 16.3398C5.96255 17.2151 4.82063 18.4705 4.29393 19.9448C4.15457 20.3348 4.35781 20.764 4.74787 20.9034C5.13794 21.0427 5.56713 20.8395 5.70648 20.4494C6.09138 19.3721 6.95819 18.3728 8.23162 17.6399C9.50461 16.9073 11.0853 16.5 12.7276 16.5C14.3699 16.5 15.9506 16.9073 17.2236 17.6399C18.497 18.3728 19.3638 19.3721 19.7487 20.4494C19.8881 20.8395 20.3173 21.0427 20.7073 20.9034C21.0974 20.764 21.3007 20.3348 21.1613 19.9448C20.6346 18.4705 19.4927 17.2151 17.9718 16.3398C16.4505 15.4643 14.6075 15 12.7276 15Z" fill="white"/>
</g>
</svg>
